<svg width="482" height="77" viewBox="0 0 482 77" fill="none" xmlns="http://www.w3.org/2000/svg">
<path d="M45.5 74.9V55.7C44.7 60.3 43.4 63.9667 41.6 66.7C39.8667 69.3667 37.9333 71.4333 35.8 72.9C33.7333 74.3 31.6333 75.2 29.5 75.6C27.4333 76.0667 25.6333 76.3 24.1 76.3C19.9667 76.3 16.4 75.6667 13.4 74.4C10.4 73.1333 7.93333 71.3667 6 69.1C4.13333 66.7667 2.73333 64 1.8 60.8C0.933333 57.6 0.5 54.0333 0.5 50.1C0.5 46.4333 0.933333 43.0667 1.8 40C2.66667 36.8667 4.03333 34.1667 5.9 31.9C7.76667 29.5667 10.1 27.7667 12.9 26.5C15.7667 25.1667 19.1333 24.5 23 24.5C24.4667 24.5 26.3 24.7333 28.5 25.2C30.7 25.6 32.9333 26.5 35.2 27.9C37.4667 29.3 39.5333 31.3667 41.4 34.1C43.3333 36.7667 44.7 40.4 45.5 45V5H58.5V74.9H45.5ZM45.5 50.1C45.5 46.0333 44.0667 42.7333 41.2 40.2C38.4 37.6 34.3 36.3 28.9 36.3C26.7 36.3 24.6667 36.6333 22.8 37.3C20.9333 37.9 19.3 38.8 17.9 40C16.5667 41.2 15.5 42.6667 14.7 44.4C13.9667 46.0667 13.6 47.9667 13.6 50.1C13.6 54.4333 15 57.9 17.8 60.5C20.6 63.0333 24.3667 64.3 29.1 64.3C34.5 64.3 38.5667 63 41.3 60.4C44.1 57.7333 45.5 54.3 45.5 50.1ZM90.5883 76.2C86.4549 76.2 82.7216 75.6333 79.3883 74.5C76.0549 73.3667 73.2216 71.7333 70.8883 69.6C68.5549 67.4 66.7549 64.7 65.4883 61.5C64.2216 58.3 63.5883 54.6333 63.5883 50.5C63.5883 41.7 65.8883 35.2 70.4883 31C75.1549 26.7333 81.7216 24.6 90.1883 24.6C98.7883 24.6 105.488 26.8 110.288 31.2C115.155 35.5333 117.588 42 117.588 50.6V54.2H75.7883C75.7883 56.0667 76.1883 57.7 76.9883 59.1C77.7883 60.5 78.8549 61.6667 80.1883 62.6C81.5883 63.5333 83.1883 64.2667 84.9883 64.8C86.7883 65.2667 88.7216 65.5 90.7883 65.5C94.7216 65.5 97.855 64.8667 100.188 63.6C102.588 62.3333 104.055 60.6333 104.588 58.5H116.788C115.588 64.7667 112.755 69.3 108.288 72.1C103.822 74.8333 97.9216 76.2 90.5883 76.2ZM75.6883 46L104.888 46.1C104.888 44.3667 104.455 42.8333 103.588 41.5C102.722 40.1667 101.588 39.0667 100.188 38.2C98.7883 37.2667 97.2216 36.5667 95.4883 36.1C93.7549 35.6333 92.0216 35.4 90.2883 35.4C88.4883 35.4 86.6883 35.6 84.8883 36C83.1549 36.4 81.5883 37.0333 80.1883 37.9C78.8549 38.7667 77.7549 39.8667 76.8883 41.2C76.0883 42.5333 75.6883 44.1333 75.6883 46ZM132.778 75L118.078 25H131.978L146.678 74.9H146.778L161.678 25H175.478L160.378 75H132.778ZM238.18 5V17.3H193.68V34.8H238.18V46.8H193.68V75H180.48V5H238.18ZM250.976 16.3C248.776 16.3 246.909 15.5667 245.376 14.1C243.909 12.6333 243.176 10.8 243.176 8.6C243.176 6.4 243.909 4.56666 245.376 3.1C246.909 1.63333 248.776 0.899994 250.976 0.899994C253.176 0.899994 255.009 1.63333 256.476 3.1C257.942 4.56666 258.676 6.4 258.676 8.6C258.676 10.8 257.942 12.6333 256.476 14.1C255.009 15.5667 253.176 16.3 250.976 16.3ZM244.476 25.1H257.676V75H244.476V25.1ZM276.984 75H263.684V25.1H276.984V46.3C276.984 41.7667 277.75 38.0333 279.284 35.1C280.884 32.1667 282.784 29.8333 284.984 28.1C287.184 26.3667 289.45 25.1667 291.784 24.5C294.184 23.8333 296.217 23.5 297.884 23.5C299.617 23.5 301.75 23.7333 304.284 24.2C306.884 24.6 309.35 25.5667 311.684 27.1C314.084 28.6333 316.117 30.9 317.784 33.9C319.45 36.8333 320.284 40.8 320.284 45.8V75H306.984V48.2C306.984 46.1333 306.584 44.3333 305.784 42.8C305.05 41.2 304.05 39.8667 302.784 38.8C301.517 37.7333 300.05 36.9333 298.384 36.4C296.784 35.8667 295.117 35.6 293.384 35.6C291.517 35.6 289.584 35.9 287.584 36.5C285.65 37.1 283.884 37.9667 282.284 39.1C280.75 40.1667 279.484 41.4667 278.484 43C277.484 44.5333 276.984 46.2667 276.984 48.2V75ZM370.305 74.9V55.7C369.505 60.3 368.205 63.9667 366.405 66.7C364.671 69.3667 362.738 71.4333 360.605 72.9C358.538 74.3 356.438 75.2 354.305 75.6C352.238 76.0667 350.438 76.3 348.905 76.3C344.771 76.3 341.205 75.6667 338.205 74.4C335.205 73.1333 332.738 71.3667 330.805 69.1C328.938 66.7667 327.538 64 326.605 60.8C325.738 57.6 325.305 54.0333 325.305 50.1C325.305 46.4333 325.738 43.0667 326.605 40C327.471 36.8667 328.838 34.1667 330.705 31.9C332.571 29.5667 334.905 27.7667 337.705 26.5C340.571 25.1667 343.938 24.5 347.805 24.5C349.271 24.5 351.105 24.7333 353.305 25.2C355.505 25.6 357.738 26.5 360.005 27.9C362.271 29.3 364.338 31.3667 366.205 34.1C368.138 36.7667 369.505 40.4 370.305 45V5H383.305V74.9H370.305ZM370.305 50.1C370.305 46.0333 368.871 42.7333 366.005 40.2C363.205 37.6 359.105 36.3 353.705 36.3C351.505 36.3 349.471 36.6333 347.605 37.3C345.738 37.9 344.105 38.8 342.705 40C341.371 41.2 340.305 42.6667 339.505 44.4C338.771 46.0667 338.405 47.9667 338.405 50.1C338.405 54.4333 339.805 57.9 342.605 60.5C345.405 63.0333 349.171 64.3 353.905 64.3C359.305 64.3 363.371 63 366.105 60.4C368.905 57.7333 370.305 54.3 370.305 50.1ZM415.393 76.2C411.26 76.2 407.526 75.6333 404.193 74.5C400.86 73.3667 398.026 71.7333 395.693 69.6C393.36 67.4 391.56 64.7 390.293 61.5C389.026 58.3 388.393 54.6333 388.393 50.5C388.393 41.7 390.693 35.2 395.293 31C399.96 26.7333 406.526 24.6 414.993 24.6C423.593 24.6 430.293 26.8 435.093 31.2C439.96 35.5333 442.393 42 442.393 50.6V54.2H400.593C400.593 56.0667 400.993 57.7 401.793 59.1C402.593 60.5 403.66 61.6667 404.993 62.6C406.393 63.5333 407.993 64.2667 409.793 64.8C411.593 65.2667 413.526 65.5 415.593 65.5C419.526 65.5 422.66 64.8667 424.993 63.6C427.393 62.3333 428.86 60.6333 429.393 58.5H441.593C440.393 64.7667 437.56 69.3 433.093 72.1C428.626 74.8333 422.726 76.2 415.393 76.2ZM400.493 46L429.693 46.1C429.693 44.3667 429.26 42.8333 428.393 41.5C427.526 40.1667 426.393 39.0667 424.993 38.2C423.593 37.2667 422.026 36.5667 420.293 36.1C418.56 35.6333 416.826 35.4 415.093 35.4C413.293 35.4 411.493 35.6 409.693 36C407.96 36.4 406.393 37.0333 404.993 37.9C403.66 38.7667 402.56 39.8667 401.693 41.2C400.893 42.5333 400.493 44.1333 400.493 46ZM481.775 37.5H472.575C469.908 37.5 467.775 37.8333 466.175 38.5C464.642 39.1667 463.442 40.1333 462.575 41.4C461.775 42.6 461.242 44.0667 460.975 45.8C460.775 47.4667 460.675 49.3333 460.675 51.4V75H447.375V25.1H460.575V44.6C460.575 41.6667 460.975 39 461.775 36.6C462.642 34.2 463.775 32.1333 465.175 30.4C466.642 28.6667 468.275 27.3333 470.075 26.4C471.942 25.4667 473.875 25 475.875 25H481.775V37.5Z" fill="black"/>
</svg>
